<?xml version="1.0" standalone="no"?>
<!DOCTYPE svg PUBLIC "-//W3C//DTD SVG 20010904//EN"
 "http://www.w3.org/TR/2001/REC-SVG-20010904/DTD/svg10.dtd">
<svg version="1.0" xmlns="http://www.w3.org/2000/svg"
 width="200.000000pt" height="200.000000pt" viewBox="0 0 200.000000 200.000000"
 preserveAspectRatio="xMidYMid meet">

<g transform="translate(0.000000,200.000000) scale(0.100000,-0.100000)"
fill="#000000" stroke="none">
<path d="M606 1680 c-209 -121 -383 -225 -388 -232 -4 -7 -8 -209 -8 -449 0
-333 3 -439 13 -450 14 -19 760 -449 777 -449 16 0 763 430 778 448 18 23 18
881 0 903 -17 21 -762 449 -779 449 -8 -1 -185 -99 -393 -220z m759 -48 l360
-207 0 -425 0 -424 -360 -208 c-198 -114 -362 -208 -365 -208 -3 0 -167 94
-365 208 l-360 208 0 424 0 425 360 207 c198 115 362 208 365 208 3 0 167 -93
365 -208z"/>
<path d="M648 1588 l-328 -191 0 -397 0 -397 328 -189 c187 -108 338 -189 352
-189 14 0 167 82 353 189 l327 189 0 397 0 397 -332 192 c-182 105 -341 191
-352 190 -12 -1 -168 -87 -348 -191z m507 49 l140 -83 3 -261 c2 -254 2 -262
-18 -268 -34 -11 -60 -54 -60 -99 1 -82 78 -129 155 -94 74 34 70 169 -5 193
-19 6 -20 16 -20 252 0 134 3 243 8 241 4 -1 67 -37 139 -78 l133 -75 -3 -365
-2 -365 -290 -167 c-159 -93 -293 -168 -297 -168 -5 0 -8 165 -8 366 l0 367
38 32 c33 29 37 38 37 80 0 40 -5 51 -33 76 -24 22 -42 29 -72 29 -30 0 -48
-7 -72 -29 -28 -25 -33 -36 -33 -76 0 -42 4 -51 38 -80 l37 -32 0 -367 c0
-201 -3 -366 -7 -366 -5 0 -138 75 -298 168 l-290 167 -2 365 -3 365 133 75
c72 41 135 77 139 78 5 2 8 -107 8 -241 0 -236 -1 -246 -20 -252 -34 -11 -60
-54 -60 -99 1 -104 126 -145 192 -62 38 46 12 144 -42 161 -19 6 -20 16 -20
268 l1 262 142 82 c78 45 149 82 157 82 8 0 78 -37 155 -82z m-121 -453 c32
-32 10 -94 -34 -94 -26 0 -50 27 -50 55 0 28 24 55 50 55 10 0 26 -7 34 -16z
m-319 -224 c37 -41 -14 -107 -64 -81 -47 26 -30 101 24 101 12 0 30 -9 40 -20z
m650 0 c37 -41 -14 -107 -64 -81 -47 26 -30 101 24 101 12 0 30 -9 40 -20z"/>
</g>
</svg>
