<svg width="267" height="267" viewBox="0 0 267 267" fill="none" xmlns="http://www.w3.org/2000/svg">
<path d="M80.8 42.6667C52.9333 58.8 29.7333 72.6667 29.0667 73.6C28.5333 74.5333 28 101.467 28 133.467C28 177.867 28.4 192 29.7333 193.467C31.6 196 131.067 253.333 133.333 253.333C135.467 253.333 235.067 196 237.067 193.6C239.467 190.533 239.467 76.1333 237.067 73.2C234.8 70.4 135.467 13.3333 133.2 13.3333C132.133 13.4667 108.533 26.5333 80.8 42.6667ZM182 49.0667L230 76.6667V133.333V189.867L182 217.6C155.6 232.8 133.733 245.333 133.333 245.333C132.933 245.333 111.067 232.8 84.6667 217.6L36.6667 189.867V133.333V76.6667L84.6667 49.0667C111.067 33.7333 132.933 21.3333 133.333 21.3333C133.733 21.3333 155.6 33.7333 182 49.0667Z" fill="#B46322"/>
<path d="M86.4 54.9333L42.6667 80.4V133.333V186.267L86.4 211.467C111.333 225.867 131.467 236.667 133.333 236.667C135.2 236.667 155.6 225.733 180.4 211.467L224 186.267V133.333V80.4L179.733 54.8C155.467 40.8 134.267 29.3333 132.8 29.4667C131.2 29.6 110.4 41.0667 86.4 54.9333ZM154 48.4L172.667 59.4667L173.067 94.2667C173.333 128.133 173.333 129.2 170.667 130C166.133 131.467 162.667 137.2 162.667 143.2C162.8 154.133 173.067 160.4 183.333 155.733C193.2 151.2 192.667 133.2 182.667 130C180.133 129.2 180 127.867 180 96.4C180 78.5333 180.4 64 181.067 64.2667C181.6 64.4 190 69.2 199.6 74.6667L217.333 84.6667L216.933 133.333L216.667 182L178 204.267C156.8 216.667 138.933 226.667 138.4 226.667C137.733 226.667 137.333 204.667 137.333 177.867V128.933L142.4 124.667C146.8 120.8 147.333 119.6 147.333 114C147.333 108.667 146.667 107.2 142.933 103.867C139.733 100.933 137.333 100 133.333 100C129.333 100 126.933 100.933 123.733 103.867C120 107.2 119.333 108.667 119.333 114C119.333 119.6 119.867 120.8 124.4 124.667L129.333 128.933V177.867C129.333 204.667 128.933 226.667 128.4 226.667C127.733 226.667 110 216.667 88.6667 204.267L50 182L49.7333 133.333L49.3333 84.6667L67.0667 74.6667C76.6667 69.2 85.0667 64.4 85.6 64.2667C86.2667 64 86.6667 78.5333 86.6667 96.4C86.6667 127.867 86.5333 129.2 84 130C79.4667 131.467 76 137.2 76 143.2C76.1333 157.067 92.8 162.533 101.6 151.467C106.667 145.333 103.2 132.267 96 130C93.4667 129.2 93.3333 127.867 93.3333 94.2667L93.4667 59.3333L112.4 48.4C122.8 42.4 132.267 37.4667 133.333 37.4667C134.4 37.4667 143.733 42.4 154 48.4ZM137.867 108.8C142.133 113.067 139.2 121.333 133.333 121.333C129.867 121.333 126.667 117.733 126.667 114C126.667 110.267 129.867 106.667 133.333 106.667C134.667 106.667 136.8 107.6 137.867 108.8ZM95.3333 138.667C100.267 144.133 93.4667 152.933 86.8 149.467C80.5333 146 82.8 136 90 136C91.6 136 94 137.2 95.3333 138.667ZM182 138.667C186.933 144.133 180.133 152.933 173.467 149.467C167.2 146 169.467 136 176.667 136C178.267 136 180.667 137.2 182 138.667Z" fill="#B46322"/>
</svg>
